{"title":"Justice League The Flashpoint Paradox 2013 WEBRip x264 - VYTO [P","uid":8719019,"size":296182223,"categoryP":"video","categoryS":"movies","magnet":"?xt=urn:btih:85919a20bb22919afa9ccdadb13e85bd959621db&amp;dn=Justice+League+The+Flashpoint+Paradox+2013+WEBRip+x264+-+VYTO+%5BP&amp;tr=udp%3A%2F%2Ftracker.openbittorrent.com%3A80&amp;tr=udp%3A%2F%2Fopen.demonii.com%3A1337&amp;tr=udp%3A%2F%2Ftracker.coppersurfer.tk%3A6969&amp;tr=udp%3A%2F%2Fexodus.desync.com%3A6969","seeders":1,"leechers":1,"uploader":"ValidusVyto","files":-1,"time":1374383234,"description":"_______ Visit us at our Semi Public Bittorrent Community ________\n  &lt;a href=&quot;\nhttp://p2pdl.com&quot; rel=&quot;nofollow&quot; target=&quot;_NEW&quot;&gt;\nhttp://p2pdl.com&lt;/a&gt;  _____________________________ &lt;a href=&quot; http://p2pdl.com&quot; rel=&quot;nofollow&quot; target=&quot;_NEW&quot;&gt; http://p2pdl.com&lt;/a&gt;\n\n\nJustice League The Flashpoint Paradox 2013 WEBRip x264 - VYTO\n\n\nGenre: Horror \nPlot: An alteration of the timeline for the superhero, The Flash, creates ripples\nthat disastrously alters the Universe. The Flash must team with other heroes to\nrestore the timeline while the ...\nDirector: Jay Oliva\nStars: Justin Chambers, Michael B. Jordan, Kevin McKidd.\nRated: N/a\n\n\nIMDb: &lt;a href=&quot;\nhttp://www.imdb.com/title/tt2820466/&quot; rel=&quot;nofollow&quot; target=&quot;_NEW&quot;&gt;\nhttp://www.imdb.com/title/tt2820466/&lt;/a&gt;\n\n\nFormat                         : MPEG-4\nFile size                      : 276 MiB\nDuration                       : 1h 21mn\nOverall bit rate               : 475 Kbps\nSource                         : 720p.WEB-DL.H264-YFN\n\nVideo\nFormat                         : AVC\nBit rate                       : 432 Kbps\nWidth                          : 720 pixels\nHeight                         : 400 pixels\nDisplay aspect ratio           : 16:9\nFrame rate mode                : Constant\nFrame rate                     : 23.976 fps\nStream size                    : 251 MiB (91%)\nWriting library                : x264 core 130 r2273\n\nAudio\nFormat                         : AAC\nBit rate mode                  : Variable\nBit rate                       : 39.9 Kbps\nChannel(s)                     : 2 channels\nChannel positions              : Front: L R\nSampling rate                  : 48.0 KHz\nStream size                    : 23.2 MiB (8%)\nLanguage                       : English\n\nSubtitle                       : Yes(English)\n &lt;a href=&quot;\nhttp://ultraimg.com/images/wcGkC.png&quot; rel=&quot;nofollow&quot; target=&quot;_NEW&quot;&gt;\nhttp://ultraimg.com/images/wcGkC.png&lt;/a&gt; &lt;a href=&quot;\nhttp://ultraimg.com/images/A4CQM.png&quot; rel=&quot;nofollow&quot; target=&quot;_NEW&quot;&gt;\nhttp://ultraimg.com/images/A4CQM.png&lt;/a&gt; &lt;a href=&quot;\nhttp://ultraimg.com/images/KbRyf.png&quot; rel=&quot;nofollow&quot; target=&quot;_NEW&quot;&gt;\nhttp://ultraimg.com/images/KbRyf.png&lt;/a&gt; &lt;a href=&quot;\nhttp://ultraimg.com/images/g4s3.png&quot; rel=&quot;nofollow&quot; target=&quot;_NEW&quot;&gt;\nhttp://ultraimg.com/images/g4s3.png&lt;/a&gt; &lt;a href=&quot;\nhttp://ultraimg.com/images/tAG43.png&quot; rel=&quot;nofollow&quot; target=&quot;_NEW&quot;&gt;\nhttp://ultraimg.com/images/tAG43.png&lt;/a&gt; &lt;a href=&quot;\nhttp://ultraimg.com/images/8YFQ6.png&quot; rel=&quot;nofollow&quot; target=&quot;_NEW&quot;&gt;\nhttp://ultraimg.com/images/8YFQ6.png&lt;/a&gt;\n\n----------------------------------------------------------------------------------------------------\n\n\nEncoded using revolutionary 10bit encoding, which enables us to provide you more crispier \nand sharper images at small sizes, just make sure you follow our instructions without a fault.\nRecommend to you to use latest version of VLC player. Install K-Lite Codec Pack or shark007 codecs\nin case of any kind of problem in playback (For non-VLC Media Player users). Alternatively, install\nCore AVC codecs, the fastest decoder that there is coupled with Community Center Codec Pack and play\non Windows Media Player Classic. Check sample to be sure.\nEnjoy!\n\nEncoder Notes:Looking For Early Access To Anything You Can Provide DVDScr, R5, DVDR, BluRay, Direct\nAudio, Music Releases and Seedboxes. We require dedicated servers, so as to do more \nand fast releases of movies.\nIf You Got anything to offer please contact us at &quot;&lt;a class=&quot;__cf_email__&quot; href=&quot;/cdn-cgi/l/email-protection&quot; data-cfemail=&quot;0b7b796c4b637e786325686466&quot;&gt;[email&amp;#160;protected]&lt;/a&gt;&lt;script cf-hash='f9e31' type=&quot;text/javascript&quot;&gt;\n/* &lt;![CDATA[ */!function(){try{var t=&quot;currentScript&quot;in document?document.currentScript:function(){for(var t=document.getElementsByTagName(&quot;script&quot;),e=t.length;e--;)if(t[e].getAttribute(&quot;cf-hash&quot;))return t[e]}();if(t&amp;&amp;t.previousSibling){var e,r,n,i,c=t.previousSibling,a=c.getAttribute(&quot;data-cfemail&quot;);if(a){for(e=&quot;&quot;,r=parseInt(a.substr(0,2),16),n=2;a.length-n;n+=2)i=parseInt(a.substr(n,2),16)^r,e+=String.fromCharCode(i);e=document.createTextNode(e),c.parentNode.replaceChild(e,c)}}}catch(u){}}();/* ]]&gt; */&lt;/script&gt;&quot;.\n\nFace book Fan Page:  \nSearch P2PDL on FB :)","torrent":{"xt":"urn:btih:85919a20bb22919afa9ccdadb13e85bd959621db","amp;dn":"Justice+League+The+Flashpoint+Paradox+2013+WEBRip+x264+-+VYTO+%5BP","amp;tr":["udp%3A%2F%2Ftracker.openbittorrent.com%3A80","udp%3A%2F%2Fopen.demonii.com%3A1337","udp%3A%2F%2Ftracker.coppersurfer.tk%3A6969","udp%3A%2F%2Fexodus.desync.com%3A6969"],"infoHash":"85919a20bb22919afa9ccdadb13e85bd959621db","infoHashBuffer":{"type":"Buffer","data":[133,145,154,32,187,34,145,154,250,156,205,173,177,62,133,189,149,150,33,219]},"announce":[],"urlList":[]}}